<?xml version="1.0" encoding="UTF-8" standalone="no"?>
<!-- Created with Inkscape (http://www.inkscape.org/) -->

<svg
   xmlns:dc="http://purl.org/dc/elements/1.1/"
   xmlns:cc="http://creativecommons.org/ns#"
   xmlns:rdf="http://www.w3.org/1999/02/22-rdf-syntax-ns#"
   xmlns:svg="http://www.w3.org/2000/svg"
   xmlns="http://www.w3.org/2000/svg"
   xmlns:sodipodi="http://sodipodi.sourceforge.net/DTD/sodipodi-0.dtd"
   xmlns:inkscape="http://www.inkscape.org/namespaces/inkscape"
   width="1200"
   height="200"
   viewBox="0 0 1200 200"
   id="svg2"
   version="1.1"
   inkscape:version="0.91 r13725"
   sodipodi:docname="BTC2018Banner.svg">
  <defs
     id="defs4" />
  <sodipodi:namedview
     id="base"
     pagecolor="#ffffff"
     bordercolor="#666666"
     borderopacity="1.0"
     inkscape:pageopacity="0"
     inkscape:pageshadow="2"
     inkscape:zoom="1.4"
     inkscape:cx="392.51823"
     inkscape:cy="-141.12471"
     inkscape:document-units="px"
     inkscape:current-layer="text4148"
     showgrid="false"
     units="px"
     inkscape:window-width="2560"
     inkscape:window-height="1378"
     inkscape:window-x="-8"
     inkscape:window-y="-8"
     inkscape:window-maximized="1" />
  <metadata
     id="metadata7">
    <rdf:RDF>
      <cc:Work
         rdf:about="">
        <dc:format>image/svg+xml</dc:format>
        <dc:type
           rdf:resource="http://purl.org/dc/dcmitype/StillImage" />
        <dc:title />
      </cc:Work>
    </rdf:RDF>
  </metadata>
  <g
     inkscape:label="Layer 1"
     inkscape:groupmode="layer"
     id="layer1"
     transform="translate(0,-852.36216)">
    <path
       style="fill:#2ba039;fill-opacity:1;stroke:#000000;stroke-width:9.57588768;stroke-linecap:round;stroke-miterlimit:4;stroke-dasharray:none;stroke-opacity:1;paint-order:fill markers stroke"
       d="m 306.1981,109.29325 c -21.47343,8.0086 -246.835319,10.31643 -257.528457,21.78152 -53.3561101,12.76665 -105.0393,51.1981 -105.175781,70.16742 0.0024,38.2015 163.104118,54.16992 318.480748,54.16992 83.87174,-0.0212 163.33102,-9.24304 216.71094,-25.14844 13.75978,-0.7368 27.27467,-1.72468 40.43164,-2.95898 36.01227,13.6851 81.26899,21.18298 128.0039,21.20898 49.49312,-0.0362 97.22208,-8.45102 134.06055,-23.63672 31.12788,9.6227 69.54121,16.28953 111.18555,19.29883 32.79937,19.8755 93.95972,32.15874 160.24021,32.17774 101.9451,-10e-5 240.1475,-30.53885 240.1465,-65.71875 1.1689,-25.1507 -99.6136,-46.24814 -135.4238,-47.20704 -34.5819,-39.71496 -140.5383,-68.799082 -214.41408,-73.841792 -46.82009,0.01326 -92.57733,4.613606 -131.48829,13.216792 -37.6646,-24.546746 -98.93667,-39.158436 -164.30664,-39.181636 -27.28954,0.0458 5.07931,1.933954 -19.86272,6.891182 C 616.15482,55.29768 554.26168,37.843198 490.72601,39.144004 422.61648,40.538454 351.55399,62.739932 306.1981,109.29325 Z"
       transform="translate(0,852.36216)"
       id="path4485"
       inkscape:connector-curvature="0"
       sodipodi:nodetypes="ccccccccccccccccsc" />
    <text
       xml:space="preserve"
       style="font-style:normal;font-variant:normal;font-weight:normal;font-stretch:normal;font-size:76.66806793px;line-height:91.00000262%;font-family:'Arial Black';-inkscape-font-specification:'Arial Black, ';text-align:center;letter-spacing:0px;word-spacing:0px;text-anchor:middle;fill:#004800;fill-opacity:1;stroke:#000000;stroke-width:3.52;stroke-linecap:butt;stroke-linejoin:miter;stroke-miterlimit:4;stroke-dasharray:none;stroke-opacity:1"
       x="838.2298"
       y="942.22314"
       id="text4136"
       sodipodi:linespacing="91.000003%"><tspan
         sodipodi:role="line"
         id="tspan4138"
         x="838.2298"
         y="942.22314"
         style="font-style:normal;font-variant:normal;font-weight:normal;font-stretch:normal;line-height:91.00000262%;font-family:'Arial Black';-inkscape-font-specification:'Arial Black, ';text-align:center;text-anchor:middle;fill:#004800;fill-opacity:1;stroke:#000000;stroke-width:3.52;stroke-miterlimit:4;stroke-dasharray:none;stroke-opacity:1">Briones District</tspan><tspan
         sodipodi:role="line"
         x="838.2298"
         y="1011.9911"
         style="font-style:normal;font-variant:normal;font-weight:normal;font-stretch:normal;line-height:91.00000262%;font-family:'Arial Black';-inkscape-font-specification:'Arial Black, ';text-align:center;text-anchor:middle;fill:#004800;fill-opacity:1;stroke:#000000;stroke-width:3.52;stroke-miterlimit:4;stroke-dasharray:none;stroke-opacity:1"
         id="tspan4146">Troop Challenge</tspan></text>
    <g
       transform="matrix(0.76997392,0,0.23624237,1.2987453,0,0)"
       style="font-style:normal;font-variant:normal;font-weight:normal;font-stretch:normal;font-size:139.45463562px;line-height:125%;font-family:'Airstrike Bold';-inkscape-font-specification:'Airstrike Bold, ';letter-spacing:0px;word-spacing:0px;fill:#860000;fill-opacity:1;stroke:#000000;stroke-width:3.51999998;stroke-linecap:butt;stroke-linejoin:miter;stroke-miterlimit:4;stroke-dasharray:none;stroke-opacity:1"
       id="text4148">
      <path
         d="m -185.05342,693.21307 -26.91474,73.91095 64.00967,0 q 7.3911,0 12.27201,-0.97618 5.02037,-1.11564 8.50673,-3.20746 3.48637,-2.23127 5.71764,-5.71764 2.37073,-3.48636 4.46255,-8.36727 l 0.55782,-1.534 q 0.69727,-1.81292 1.39455,-3.76528 0.69727,-1.95236 0.69727,-3.90473 -0.13945,-2.78909 -1.39455,-5.02037 -1.25509,-2.37073 -2.78909,-3.62582 1.67346,-0.83673 3.62582,-2.51018 2.09182,-1.81291 3.76528,-4.04419 1.81291,-2.37072 2.92854,-5.02036 1.2551,-2.64964 1.2551,-5.43873 l 0,-0.27891 q 0,-3.90473 -0.69728,-7.67001 -0.55782,-3.76527 -2.23127,-6.55436 -1.534,-2.7891 -4.32309,-4.46255 -2.64964,-1.81291 -6.83328,-1.81291 l -64.00968,0 z m 12.13255,40.16293 7.67001,-21.1971 28.5882,0 q 0.27891,0 1.25509,1.25509 1.11564,1.11564 1.534,1.81291 0,0 0,0.27891 0.13946,0.27891 0.27891,0.41836 l -0.27891,0.69728 q -0.13945,0.41836 -0.69727,1.25509 -0.41837,0.69727 -0.97618,1.534 -0.55782,0.83673 -1.11564,1.534 -0.41837,0.55782 -0.55782,0.55782 l -22.31274,0 -13.38765,11.85364 z m -5.43873,14.78219 3.62582,-9.34346 32.07457,0 q 0,0.97618 -0.13946,1.95237 0,0.97618 -0.2789,1.39454 l -0.27891,0.69728 q -0.13946,0.13945 -0.69728,1.25509 -0.55782,0.97618 -0.55782,0.97618 -0.41836,0.41836 -1.25509,0.97618 -0.83673,0.41837 -1.67345,0.97619 -0.83673,0.41836 -1.534,0.83672 -0.69728,0.27891 -0.69728,0.27891 l -28.5882,0 z"
         style="font-style:normal;font-variant:normal;font-weight:normal;font-stretch:normal;font-family:Airstrike;-inkscape-font-specification:Airstrike;fill:#860000;fill-opacity:1;stroke:#000000;stroke-width:3.51999998;stroke-miterlimit:4;stroke-dasharray:none;stroke-opacity:1"
         id="path4148" />
      <path
         d="m -90.161073,767.12402 26.77529,0 20.081467,-55.08458 16.455647,0 q 1.115637,0 3.486366,-2.23127 2.510183,-2.23128 5.020367,-5.29928 2.649638,-3.068 4.880912,-6.136 2.370729,-3.20746 3.346911,-5.15982 l -69.866772,0 q -1.952365,1.25509 -4.741458,4.18364 -2.649638,2.78909 -5.299276,5.85709 -2.510183,3.068 -4.462548,5.57819 -1.81291,2.51018 -1.952365,3.068 l 0,0.13945 26.356926,0 -20.081467,55.08458 z"
         style="font-style:normal;font-variant:normal;font-weight:normal;font-stretch:normal;font-family:Airstrike;-inkscape-font-specification:Airstrike;fill:#860000;fill-opacity:1;stroke:#000000;stroke-width:3.51999998;stroke-miterlimit:4;stroke-dasharray:none;stroke-opacity:1"
         id="path4150" />
      <path
         d="m -19.077347,733.23655 q 0,10.04073 3.90473,16.5951 4.044184,6.55437 10.5985519,10.4591 6.5543679,3.76527 14.7821911,5.29927 8.227824,1.534 16.874011,1.534 l 11.156371,0 q 5.299276,-4.18364 9.343461,-9.06455 4.044184,-5.02036 7.251641,-9.76182 l -33.329658,0 q -2.370729,0 -5.020367,-1.67346 -2.510184,-1.67345 -4.741458,-4.18364 -2.0918193,-2.51018 -3.4863656,-5.43873 -1.3945464,-3.068 -1.3945464,-5.71764 0,-2.09182 1.1156371,-5.71764 0.8367278,-2.37073 2.3707289,-4.74146 1.534001,-2.51018 3.346911,-4.46254 1.952365,-1.95237 3.90473,-3.06801 2.091819,-1.25509 3.90473,-1.25509 l 36.258205,0 q 4.880912,-4.18364 8.925097,-8.78564 4.183639,-4.74146 8.227823,-10.04073 l -57.594764,0 q -7.391096,0 -13.9454639,3.76527 -6.5543679,3.62582 -11.5747347,9.34346 -5.0203674,5.71764 -7.9489144,12.82983 -2.928547,7.11219 -2.928547,13.80601 l 0,0.27891 z"
         style="font-style:normal;font-variant:normal;font-weight:normal;font-stretch:normal;font-family:Airstrike;-inkscape-font-specification:Airstrike;fill:#860000;fill-opacity:1;stroke:#000000;stroke-width:3.51999998;stroke-miterlimit:4;stroke-dasharray:none;stroke-opacity:1"
         id="path4152" />
      <path
         d="m 88.27985,747.46092 q 0,0.97618 1.534001,0.97618 l 56.479129,0 q 0,0 -1.67346,2.23128 -1.67345,2.09182 -4.18364,5.02036 -2.37073,2.92855 -5.15982,6.13601 -2.64964,3.20745 -4.88091,5.29927 l -63.451859,0 q -4.044185,0 -5.99655,-2.51018 -1.81291,-2.64964 -1.81291,-6.41491 0,-3.48637 1.394546,-7.3911 1.394547,-3.90473 3.90473,-7.53055 2.231274,-3.068 6.275459,-6.83328 4.044184,-3.76527 8.646187,-6.97273 4.602003,-3.34691 9.343461,-5.43873 4.741457,-2.23127 8.367278,-2.23127 l 26.496378,0 q 0.13946,0 1.81291,-0.69728 1.67346,-0.83672 2.64964,-1.39454 0.55782,-0.27891 1.39455,-0.69728 0.83673,-0.55781 0.83673,-0.69727 l 0.55781,-0.69727 q 1.39455,-1.39455 1.39455,-3.76528 0,-1.67345 -1.25509,-1.67345 l -55.502947,0 q 1.394547,-2.23128 3.346912,-4.74146 2.091819,-2.64964 4.323093,-5.15982 2.370729,-2.51019 4.602003,-4.74146 2.231274,-2.37073 4.183639,-4.32309 l 61.63895,0 q 4.32309,0 6.27546,3.068 2.09182,3.068 2.09182,7.53055 0,3.62582 -1.25509,7.39109 -1.11564,3.62583 -3.34692,6.83328 -2.51018,3.48637 -6.69382,7.3911 -4.04418,3.76527 -8.92509,7.11218 -4.74146,3.20746 -9.76183,5.29928 -4.88091,2.09182 -8.9251,2.09182 l -27.890923,0 q -1.115637,0 -2.231274,0.97618 -1.115637,0.83673 -1.952365,1.95237 l -2.649638,4.602 z"
         style="font-style:normal;font-variant:normal;font-weight:normal;font-stretch:normal;font-family:Airstrike;-inkscape-font-specification:Airstrike;fill:#860000;fill-opacity:1;stroke:#000000;stroke-width:3.51999998;stroke-miterlimit:4;stroke-dasharray:none;stroke-opacity:1"
         id="path4154" />
      <path
         d="m 254.80394,727.10054 c 0.18594,-1.39455 0.3254,-2.69612 0.41837,-3.90473 0.18594,-1.30157 0.27891,-2.55666 0.27891,-3.76527 0,-4.64849 -0.83673,-8.64619 -2.51019,-11.9931 -1.67345,-3.34691 -4.04418,-6.04304 -7.11218,-8.08837 -2.97503,-2.13831 -6.55437,-3.67231 -10.73801,-4.602 -4.18364,-1.02267 -8.78564,-1.534 -13.80601,-1.534 l -18.40801,0 c -4.9274,0 -9.80831,1.25509 -14.64274,3.76527 -4.83443,2.41721 -9.25049,5.57819 -13.24819,9.48292 -3.9977,3.90473 -7.34461,8.22782 -10.04073,12.96928 -2.69613,4.74145 -4.36958,9.34346 -5.02037,13.80601 -0.18594,1.30157 -0.32539,2.55666 -0.41836,3.76527 -0.093,1.20861 -0.13946,2.37073 -0.13946,3.48637 0,5.20631 0.88321,9.5294 2.64964,12.96928 1.85939,3.43988 4.36958,6.18249 7.53055,8.22782 3.16097,1.95237 6.92625,3.34691 11.29583,4.18364 4.36958,0.83673 9.11104,1.25509 14.22437,1.25509 l 13.94546,0 c 5.57819,0 10.97043,-1.20861 16.17674,-3.62582 5.20631,-2.51018 9.8548,-5.71764 13.94547,-9.62237 4.18363,-3.90473 7.67,-8.22782 10.45909,-12.96928 2.78909,-4.74145 4.50903,-9.34346 5.15982,-13.80601 z m -68.61168,4.18364 c 0.093,-0.74376 0.3254,-1.58049 0.69728,-2.51018 0.37188,-1.02267 0.79024,-2.09182 1.25509,-3.20746 0.83673,-1.58049 1.95236,-3.16097 3.34691,-4.74146 1.48751,-1.67345 3.068,-3.16097 4.74146,-4.46254 1.67345,-1.30158 3.34691,-2.32425 5.02036,-3.06801 1.76643,-0.83673 3.3934,-1.25509 4.88092,-1.25509 l 11.29582,0 c 2.32425,0 4.18364,0.37188 5.57819,1.11564 1.48751,0.65079 2.64963,1.58048 3.48636,2.78909 0.83673,1.11564 1.39455,2.41722 1.67346,3.90473 0.27891,1.48752 0.41836,2.97504 0.41836,4.46255 0,0.83673 -0.0465,1.67345 -0.13945,2.51018 0,0.74376 -0.0465,1.48752 -0.13946,2.23128 -0.1674,0.91834 -0.40145,1.56143 -0.83672,2.64964 -0.18594,0.74375 -0.69728,1.76642 -1.53401,3.068 -0.83673,1.58049 -2.09182,3.20746 -3.76527,4.88091 -1.58049,1.58049 -3.30043,3.02152 -5.15982,4.32309 -1.76643,1.30158 -3.53285,2.37073 -5.29928,3.20746 -1.67345,0.74376 -3.068,1.11564 -4.18364,1.11564 l -9.204,0 c -1.67346,0 -3.25395,-0.46485 -4.74146,-1.39455 -1.48751,-0.9297 -2.78909,-2.13831 -3.90473,-3.62582 -1.11564,-1.48751 -1.99885,-3.11448 -2.64964,-4.88091 -0.65079,-1.85939 -0.97618,-3.62582 -0.97618,-5.29928 l 0,-0.83673 c 0,-0.55781 0.0465,-0.88321 0.13945,-0.97618 z"
         style="font-style:normal;font-variant:normal;font-weight:normal;font-stretch:normal;font-family:Airstrike;-inkscape-font-specification:Airstrike;fill:#860000;fill-opacity:1;stroke:#000000;stroke-width:3.51999998;stroke-miterlimit:4;stroke-dasharray:none;stroke-opacity:1"
         id="path4156"
         inkscape:connector-curvature="0"
         sodipodi:nodetypes="ccssccsscsscssccsssccscccccscssccssccccsccsssscssc" />
      <path
         d="m 285.8544,767.12402 26.91474,-73.91095 -28.5882,0 q -1.95236,1.25509 -4.74146,4.18364 -2.64963,2.78909 -5.29927,5.85709 -2.51019,3.068 -4.46255,5.57819 -1.81291,2.51018 -1.95237,3.068 l 0,0.13945 11.43529,0 -20.08147,55.08458 26.77529,0 z"
         style="font-style:normal;font-variant:normal;font-weight:normal;font-stretch:normal;font-family:Airstrike;-inkscape-font-specification:Airstrike;fill:#860000;fill-opacity:1;stroke:#000000;stroke-width:3.51999998;stroke-miterlimit:4;stroke-dasharray:none;stroke-opacity:1"
         id="path4158" />
      <path
         d="m 313.77583,712.31835 q -1.11564,2.09182 -1.95237,5.29928 -0.69727,3.068 -0.69727,6.27546 0,2.51018 0.55782,4.602 0.69727,1.95236 2.23127,2.78909 -1.39454,1.11564 -3.90473,2.64964 -2.37073,1.534 -4.602,4.32309 -1.39455,1.81291 -2.64964,4.3231 -1.11563,2.37073 -1.81291,4.18364 l -0.69727,2.09182 q -0.97618,2.92854 -1.534,5.43873 -0.55782,2.37073 -0.55782,4.32309 0,2.23127 0.83673,3.90473 0.97618,1.534 3.20745,2.64964 2.37073,0.97618 6.13601,1.534 3.76527,0.41836 9.48291,0.41836 l 41.55748,0 q 8.22783,0 13.2482,-0.97618 5.15982,-1.11564 8.36727,-3.20746 3.20746,-2.23127 5.15982,-5.71764 2.09182,-3.48636 4.18364,-8.36727 l 0.97619,-2.7891 q 0.69727,-1.67345 1.25509,-3.62582 0.55782,-2.09182 0.55782,-3.62582 l 0,-0.41836 q -0.13946,-2.78909 -1.534,-4.3231 -1.39455,-1.534 -1.95237,-2.64963 2.92855,-1.2551 5.43873,-4.46255 2.64964,-3.20746 4.04419,-7.11219 1.25509,-3.068 1.25509,-5.43873 l 0,-1.95236 q 0,-2.92855 -0.83673,-6.27546 -0.83673,-3.34691 -2.64964,-6.13601 -1.81291,-2.92854 -4.46255,-4.88091 -2.64963,-1.95236 -6.136,-1.95236 l -41.55748,0 q -8.50673,0 -13.94547,1.67345 -5.43873,1.534 -8.64618,4.04419 -3.20746,2.37073 -4.88092,5.43873 -1.67345,2.92854 -2.64963,5.71764 l -0.83673,2.23127 z m 27.61202,2.92855 q 0.69727,-1.534 2.51018,-2.23128 1.81291,-0.83672 2.51018,-0.83672 l 24.26511,0 q 0.41836,0.13945 1.39455,1.25509 0.97618,1.11564 1.39454,1.81291 l 0,1.39455 q -0.27891,0.83672 -1.39454,2.51018 -1.11564,1.67345 -1.534,1.67345 l -18.26856,0 -18.68692,16.17674 7.80946,-21.75492 z m -8.08837,32.91129 q -0.27891,0 -1.25509,-1.11563 -0.97619,-1.2551 -1.39455,-1.95237 l 0.13945,-0.41836 q 0,-0.13946 0,-0.13946 0.13946,-0.13945 0.13946,-0.27891 l -0.13946,-0.27891 1.95237,-5.15982 32.21402,0 q 0,0.97618 -0.55782,2.7891 -0.55782,1.67345 -0.83673,2.09181 l -0.27891,0.69728 q -0.13945,0.13945 -0.41836,0.41836 -0.13945,0.27891 -0.13945,0.27891 -0.41837,0.41836 -1.2551,0.97618 -0.83672,0.41837 -1.67345,0.97619 -0.83673,0.41836 -1.534,0.83672 -0.69728,0.27891 -0.69728,0.27891 l -24.2651,0 z"
         style="font-style:normal;font-variant:normal;font-weight:normal;font-stretch:normal;font-family:Airstrike;-inkscape-font-specification:Airstrike;fill:#860000;fill-opacity:1;stroke:#000000;stroke-width:3.51999998;stroke-miterlimit:4;stroke-dasharray:none;stroke-opacity:1"
         id="path4160" />
    </g>
  </g>
</svg>
